<?xml version="1.0" encoding="utf-8"?>
<!-- Generator: Adobe Illustrator 19.1.0, SVG Export Plug-In . SVG Version: 6.00 Build 0)  -->
<svg version="1.1" id="Layer_1" xmlns="http://www.w3.org/2000/svg" xmlns:xlink="http://www.w3.org/1999/xlink" x="0px" y="0px"
	 viewBox="0 0 147.3 151.1" style="enable-background:new 0 0 147.3 151.1;" xml:space="preserve">
<style type="text/css">
	.st0{fill:#00AEEF;}
</style>
<path class="st0" d="M69,2L3.2,67.7c-4.3,4.3-4.3,11.3,0,15.7L69,149.2c2.4,2.4,6.3,2.7,8.9,0.4c2.8-2.5,2.9-6.7,0.3-9.3L19.9,81.9
	h120.8c3.4,0,6.4-2.6,6.6-6c0.2-3.7-2.7-6.8-6.4-6.8h-121l58.3-58.3c1.2-1.2,1.9-2.9,1.9-4.5c0-1.6-0.6-3.2-1.8-4.5
	C75.8-0.7,71.5-0.6,69,2z"/>
</svg>
