<?xml version="1.0" encoding="utf-8"?>
<!-- Generator: Adobe Illustrator 19.1.0, SVG Export Plug-In . SVG Version: 6.00 Build 0)  -->
<svg version="1.1" id="Layer_1" xmlns="http://www.w3.org/2000/svg" xmlns:xlink="http://www.w3.org/1999/xlink" x="0px" y="0px"
	 viewBox="0 0 147.3 151.1" style="enable-background:new 0 0 147.3 151.1;" xml:space="preserve">
<style type="text/css">
	.st0{fill:#00AEEF;}
</style>
<path class="st0" d="M78.3,149.2L144,83.4c4.3-4.3,4.3-11.3,0-15.7L78.3,2c-2.4-2.4-6.3-2.7-8.9-0.4c-2.8,2.5-2.9,6.7-0.3,9.3
	l58.3,58.3H6.6c-3.4,0-6.4,2.6-6.6,6C-0.2,78.9,2.7,82,6.4,82h121l-58.3,58.3c-1.2,1.2-1.9,2.9-1.9,4.5c0,1.6,0.6,3.2,1.8,4.5
	C71.5,151.8,75.7,151.7,78.3,149.2z"/>
</svg>
