<?xml version="1.0" encoding="utf-8"?>
<!-- Generator: Adobe Illustrator 19.1.0, SVG Export Plug-In . SVG Version: 6.00 Build 0)  -->
<svg version="1.1" id="Layer_1" xmlns="http://www.w3.org/2000/svg" xmlns:xlink="http://www.w3.org/1999/xlink" x="0px" y="0px"
	 viewBox="0 0 261.8 136.6" style="enable-background:new 0 0 261.8 136.6;" xml:space="preserve">
<style type="text/css">
	.st0{fill:#FFFFFF;}
</style>
<path class="st0" d="M251.3,88.8c4.4-32.8-16.3-68-67.7-57C170.8,5.4,145,0,115.6,0C56.9,0,46.7,34.9,43,67.8h-3.4
	c-19.8,0-32.1,15.3-32.2,33.7C2.8,105.6,0,111,0,117c0,7.8,4.8,14.7,12.1,18.7h27.5h0.9h16.1l49.3,0.9c1.5,0,2.8-1.2,2.9-2.8
	c2.4-29.8,42.7-30.9,42.7-59.7c0-12.4-13.2-22.3-29.8-22.3c-7.8,0-13.9,1.7-18.9,4.2c-3,1.5-6.6,0.5-8.5-2.3l-1.4-2
	c-2.4-3.5-1.2-8.5,2.6-10.3c6.9-3.4,15.5-5.9,26.1-5.9c26.6,0,44.4,16.1,44.4,40.3c0,30.5-31.5,37.8-38.8,54c-1.4,3.2,0.7,6.9,4,6.8
	l43.3-0.9h69.5c5.9,0,11.5-3.4,14.3-9c2.1-4.3,3.4-9.1,3.4-14.3C261.8,102.8,257.7,94.3,251.3,88.8z"/>
</svg>
